<svg height="493pt" viewBox="-95 0 493 493.69982" width="493pt" xmlns="http://www.w3.org/2000/svg"><path d="m218.664062 275c-2.410156-4.417969-3.683593-9.367188-3.699218-14.398438v-104.902343h15.398437c5.523438 0 10-4.476563 10-10 0-5.523438-4.476562-10-10-10h-156.800781c-5.519531 0-10 4.476562-10 10 0 5.523437 4.480469 10 10 10h15.402344v104.902343c-.015625 5.03125-1.289063 9.980469-3.699219 14.398438l-78.800781 144.5c-8.457032 15.523438-8.121094 34.351562.878906 49.566406s25.34375 24.570313 43.019531 24.632813h203.300781c17.660157-.050781 33.988282-9.390625 42.992188-24.582031 9-15.195313 9.34375-34.003907.90625-49.515626zm-115.898437 9.601562c4.027344-7.324218 6.160156-15.542968 6.199219-23.902343v-105h86v104.902343c.039062 8.359376 2.167968 16.574219 6.199218 23.898438l27.601563 50.601562c-1.703125-1-3.402344-2.101562-5.203125-3.300781-7.898438-5.199219-17.699219-11.601562-35.898438-11.601562-18.199218 0-28 6.5-35.898437 11.601562-7.101563 4.699219-12.703125 8.398438-24.902344 8.398438s-17.800781-3.699219-24.898437-8.398438c-5.199219-3.402343-11.199219-7.402343-19.902344-9.699219zm176.597656 174.296876c-5.359375 9.167968-15.179687 14.800781-25.800781 14.800781h-203.199219c-10.617187 0-20.4375-5.632813-25.800781-14.800781-5.503906-9.085938-5.691406-20.429688-.5-29.699219l48.203125-88.5c8.296875 1 13.097656 4.199219 18.898437 8 7.898438 5.199219 17.699219 11.601562 35.898438 11.601562 18.203125 0 28-6.5 35.902344-11.699219 7.097656-4.703124 12.699218-8.402343 24.898437-8.402343s17.800781 3.699219 24.902344 8.300781c6.898437 4.601562 15.398437 10.101562 29.699219 11.398438l37.699218 69.203124c4.949219 9.390626 4.648438 20.683594-.800781 29.796876zm0 0"/><path d="m154.363281 98.300781c0 18.058594 14.640625 32.699219 32.699219 32.699219 18.0625 0 32.703125-14.640625 32.703125-32.699219 0-18.0625-14.640625-32.699219-32.703125-32.699219-18.054688.003907-32.691406 14.640626-32.699219 32.699219zm32.699219-12.800781c7.015625 0 12.703125 5.6875 12.703125 12.699219 0 7.015625-5.6875 12.699219-12.703125 12.699219-7.011719 0-12.699219-5.683594-12.699219-12.699219.011719-7.007813 5.691407-12.691407 12.699219-12.699219zm0 0"/><path d="m102.664062 116.398438c16.125 0 29.199219-13.070313 29.199219-29.199219 0-16.125-13.074219-29.199219-29.199219-29.199219s-29.199218 13.074219-29.199218 29.199219c.019531 16.121093 13.082031 29.183593 29.199218 29.199219zm0-38.398438c5.082032 0 9.199219 4.117188 9.199219 9.199219s-4.117187 9.199219-9.199219 9.199219c-5.082031 0-9.199218-4.117188-9.199218-9.199219-.007813-2.441407.960937-4.785157 2.6875-6.511719 1.726562-1.726562 4.070312-2.695312 6.511718-2.6875zm0 0"/><path d="m153.765625 55.398438c11.210937.042968 21.34375-6.679688 25.660156-17.027344 4.320313-10.347656 1.976563-22.28125-5.9375-30.222656-7.914062-7.941407-19.839843-10.332032-30.199219-6.050782-10.363281 4.28125-17.125 14.390625-17.125 25.601563 0 15.261719 12.339844 27.644531 27.601563 27.699219zm0-35.398438c4.25 0 7.699219 3.445312 7.699219 7.699219 0 4.253906-3.449219 7.699219-7.699219 7.699219-4.253906 0-7.703125-3.445313-7.703125-7.699219 0-4.253907 3.449219-7.699219 7.703125-7.699219zm0 0"/></svg>